<?xml version="1.0" encoding="UTF-8" standalone="no"?><svg xmlns="http://www.w3.org/2000/svg" xmlns:xlink="http://www.w3.org/1999/xlink" contentScriptType="application/ecmascript" contentStyleType="text/css" height="499px" preserveAspectRatio="none" style="width:331px;height:499px;" version="1.1" viewBox="0 0 331 499" width="331px" zoomAndPan="magnify"><defs><filter height="300%" id="f17bmnrjmcyori" width="300%" x="-1" y="-1"><feGaussianBlur result="blurOut" stdDeviation="2.0"/><feColorMatrix in="blurOut" result="blurOut2" type="matrix" values="0 0 0 0 0 0 0 0 0 0 0 0 0 0 0 0 0 0 .4 0"/><feOffset dx="4.0" dy="4.0" in="blurOut2" result="blurOut3"/><feBlend in="SourceGraphic" in2="blurOut3" mode="normal"/></filter></defs><g><!--MD5=[47de47a8b5f06cbc5e036fae0a9149b7]
class Iterable--><rect fill="#FEFECE" filter="url(#f17bmnrjmcyori)" height="48" id="Iterable" style="stroke: #A80036; stroke-width: 1.5;" width="92" x="91" y="8"/><ellipse cx="106" cy="24" fill="#B4A7E5" rx="11" ry="11" style="stroke: #A80036; stroke-width: 1.0;"/><path d="M101.9219,19.7656 L101.9219,17.6094 L109.3125,17.6094 L109.3125,19.7656 L106.8438,19.7656 L106.8438,27.8438 L109.3125,27.8438 L109.3125,30 L101.9219,30 L101.9219,27.8438 L104.3906,27.8438 L104.3906,19.7656 L101.9219,19.7656 Z "/><text fill="#000000" font-family="sans-serif" font-size="12" font-style="italic" lengthAdjust="spacingAndGlyphs" textLength="49" x="120" y="28.1543">Iterable</text><rect fill="#FFFFFF" height="15.9688" style="stroke: #000000; stroke-width: 1.0; stroke-dasharray: 2.0,2.0;" width="9" x="177" y="5"/><text fill="#000000" font-family="sans-serif" font-size="12" font-style="italic" lengthAdjust="spacingAndGlyphs" textLength="7" x="178" y="17.1387">T</text><line style="stroke: #A80036; stroke-width: 1.5;" x1="92" x2="182" y1="40" y2="40"/><line style="stroke: #A80036; stroke-width: 1.5;" x1="92" x2="182" y1="48" y2="48"/><!--MD5=[c160724f8e3bb89ca8141a12554ac2e3]
class Collection--><rect fill="#FEFECE" filter="url(#f17bmnrjmcyori)" height="48" id="Collection" style="stroke: #A80036; stroke-width: 1.5;" width="104" x="85" y="116"/><ellipse cx="100" cy="132" fill="#B4A7E5" rx="11" ry="11" style="stroke: #A80036; stroke-width: 1.0;"/><path d="M95.9219,127.7656 L95.9219,125.6094 L103.3125,125.6094 L103.3125,127.7656 L100.8438,127.7656 L100.8438,135.8438 L103.3125,135.8438 L103.3125,138 L95.9219,138 L95.9219,135.8438 L98.3906,135.8438 L98.3906,127.7656 L95.9219,127.7656 Z "/><text fill="#000000" font-family="sans-serif" font-size="12" font-style="italic" lengthAdjust="spacingAndGlyphs" textLength="61" x="114" y="136.1543">Collection</text><rect fill="#FFFFFF" height="15.9688" style="stroke: #000000; stroke-width: 1.0; stroke-dasharray: 2.0,2.0;" width="9" x="183" y="113"/><text fill="#000000" font-family="sans-serif" font-size="12" font-style="italic" lengthAdjust="spacingAndGlyphs" textLength="7" x="184" y="125.1387">T</text><line style="stroke: #A80036; stroke-width: 1.5;" x1="86" x2="188" y1="148" y2="148"/><line style="stroke: #A80036; stroke-width: 1.5;" x1="86" x2="188" y1="156" y2="156"/><!--MD5=[3d4177ac58b4411586d067f34e84928f]
class List--><rect fill="#FEFECE" filter="url(#f17bmnrjmcyori)" height="48" id="List" style="stroke: #A80036; stroke-width: 1.5;" width="64" x="6" y="224"/><ellipse cx="21" cy="240" fill="#B4A7E5" rx="11" ry="11" style="stroke: #A80036; stroke-width: 1.0;"/><path d="M16.9219,235.7656 L16.9219,233.6094 L24.3125,233.6094 L24.3125,235.7656 L21.8438,235.7656 L21.8438,243.8438 L24.3125,243.8438 L24.3125,246 L16.9219,246 L16.9219,243.8438 L19.3906,243.8438 L19.3906,235.7656 L16.9219,235.7656 Z "/><text fill="#000000" font-family="sans-serif" font-size="12" font-style="italic" lengthAdjust="spacingAndGlyphs" textLength="21" x="35" y="244.1543">List</text><rect fill="#FFFFFF" height="15.9688" style="stroke: #000000; stroke-width: 1.0; stroke-dasharray: 2.0,2.0;" width="9" x="64" y="221"/><text fill="#000000" font-family="sans-serif" font-size="12" font-style="italic" lengthAdjust="spacingAndGlyphs" textLength="7" x="65" y="233.1387">T</text><line style="stroke: #A80036; stroke-width: 1.5;" x1="7" x2="69" y1="256" y2="256"/><line style="stroke: #A80036; stroke-width: 1.5;" x1="7" x2="69" y1="264" y2="264"/><!--MD5=[73145e46247802284b2f7aaef1fa1797]
class Set--><rect fill="#FEFECE" filter="url(#f17bmnrjmcyori)" height="48" id="Set" style="stroke: #A80036; stroke-width: 1.5;" width="64" x="105" y="224"/><ellipse cx="120" cy="240" fill="#B4A7E5" rx="11" ry="11" style="stroke: #A80036; stroke-width: 1.0;"/><path d="M115.9219,235.7656 L115.9219,233.6094 L123.3125,233.6094 L123.3125,235.7656 L120.8438,235.7656 L120.8438,243.8438 L123.3125,243.8438 L123.3125,246 L115.9219,246 L115.9219,243.8438 L118.3906,243.8438 L118.3906,235.7656 L115.9219,235.7656 Z "/><text fill="#000000" font-family="sans-serif" font-size="12" font-style="italic" lengthAdjust="spacingAndGlyphs" textLength="21" x="134" y="244.1543">Set</text><rect fill="#FFFFFF" height="15.9688" style="stroke: #000000; stroke-width: 1.0; stroke-dasharray: 2.0,2.0;" width="9" x="163" y="221"/><text fill="#000000" font-family="sans-serif" font-size="12" font-style="italic" lengthAdjust="spacingAndGlyphs" textLength="7" x="164" y="233.1387">T</text><line style="stroke: #A80036; stroke-width: 1.5;" x1="106" x2="168" y1="256" y2="256"/><line style="stroke: #A80036; stroke-width: 1.5;" x1="106" x2="168" y1="264" y2="264"/><!--MD5=[c671e22bb1cd81cc807e7f83f36310d2]
class SortedSet--><rect fill="#FEFECE" filter="url(#f17bmnrjmcyori)" height="48" id="SortedSet" style="stroke: #A80036; stroke-width: 1.5;" width="106" x="76" y="332"/><ellipse cx="91" cy="348" fill="#B4A7E5" rx="11" ry="11" style="stroke: #A80036; stroke-width: 1.0;"/><path d="M86.9219,343.7656 L86.9219,341.6094 L94.3125,341.6094 L94.3125,343.7656 L91.8438,343.7656 L91.8438,351.8438 L94.3125,351.8438 L94.3125,354 L86.9219,354 L86.9219,351.8438 L89.3906,351.8438 L89.3906,343.7656 L86.9219,343.7656 Z "/><text fill="#000000" font-family="sans-serif" font-size="12" font-style="italic" lengthAdjust="spacingAndGlyphs" textLength="63" x="105" y="352.1543">SortedSet</text><rect fill="#FFFFFF" height="15.9688" style="stroke: #000000; stroke-width: 1.0; stroke-dasharray: 2.0,2.0;" width="9" x="176" y="329"/><text fill="#000000" font-family="sans-serif" font-size="12" font-style="italic" lengthAdjust="spacingAndGlyphs" textLength="7" x="177" y="341.1387">T</text><line style="stroke: #A80036; stroke-width: 1.5;" x1="77" x2="181" y1="364" y2="364"/><line style="stroke: #A80036; stroke-width: 1.5;" x1="77" x2="181" y1="372" y2="372"/><!--MD5=[9a382033cbbfde0ee4ba2c7fe290f50d]
class NavigableSet--><rect fill="#FEFECE" filter="url(#f17bmnrjmcyori)" height="48" id="NavigableSet" style="stroke: #A80036; stroke-width: 1.5;" width="125" x="66.5" y="440"/><ellipse cx="81.5" cy="456" fill="#B4A7E5" rx="11" ry="11" style="stroke: #A80036; stroke-width: 1.0;"/><path d="M77.4219,451.7656 L77.4219,449.6094 L84.8125,449.6094 L84.8125,451.7656 L82.3438,451.7656 L82.3438,459.8438 L84.8125,459.8438 L84.8125,462 L77.4219,462 L77.4219,459.8438 L79.8906,459.8438 L79.8906,451.7656 L77.4219,451.7656 Z "/><text fill="#000000" font-family="sans-serif" font-size="12" font-style="italic" lengthAdjust="spacingAndGlyphs" textLength="82" x="95.5" y="460.1543">NavigableSet</text><rect fill="#FFFFFF" height="15.9688" style="stroke: #000000; stroke-width: 1.0; stroke-dasharray: 2.0,2.0;" width="9" x="185.5" y="437"/><text fill="#000000" font-family="sans-serif" font-size="12" font-style="italic" lengthAdjust="spacingAndGlyphs" textLength="7" x="186.5" y="449.1387">T</text><line style="stroke: #A80036; stroke-width: 1.5;" x1="67.5" x2="190.5" y1="472" y2="472"/><line style="stroke: #A80036; stroke-width: 1.5;" x1="67.5" x2="190.5" y1="480" y2="480"/><!--MD5=[15b0de36700cf8bf422172734e699e19]
class Queue--><rect fill="#FEFECE" filter="url(#f17bmnrjmcyori)" height="48" id="Queue" style="stroke: #A80036; stroke-width: 1.5;" width="83" x="218.5" y="224"/><ellipse cx="233.5" cy="240" fill="#B4A7E5" rx="11" ry="11" style="stroke: #A80036; stroke-width: 1.0;"/><path d="M229.4219,235.7656 L229.4219,233.6094 L236.8125,233.6094 L236.8125,235.7656 L234.3438,235.7656 L234.3438,243.8438 L236.8125,243.8438 L236.8125,246 L229.4219,246 L229.4219,243.8438 L231.8906,243.8438 L231.8906,235.7656 L229.4219,235.7656 Z "/><text fill="#000000" font-family="sans-serif" font-size="12" font-style="italic" lengthAdjust="spacingAndGlyphs" textLength="40" x="247.5" y="244.1543">Queue</text><rect fill="#FFFFFF" height="15.9688" style="stroke: #000000; stroke-width: 1.0; stroke-dasharray: 2.0,2.0;" width="9" x="295.5" y="221"/><text fill="#000000" font-family="sans-serif" font-size="12" font-style="italic" lengthAdjust="spacingAndGlyphs" textLength="7" x="296.5" y="233.1387">T</text><line style="stroke: #A80036; stroke-width: 1.5;" x1="219.5" x2="300.5" y1="256" y2="256"/><line style="stroke: #A80036; stroke-width: 1.5;" x1="219.5" x2="300.5" y1="264" y2="264"/><!--MD5=[9c183a97b7cd5c0903b959c19c89d06b]
class DeQueue--><rect fill="#FEFECE" filter="url(#f17bmnrjmcyori)" height="48" id="DeQueue" style="stroke: #A80036; stroke-width: 1.5;" width="100" x="217" y="332"/><ellipse cx="232" cy="348" fill="#B4A7E5" rx="11" ry="11" style="stroke: #A80036; stroke-width: 1.0;"/><path d="M227.9219,343.7656 L227.9219,341.6094 L235.3125,341.6094 L235.3125,343.7656 L232.8438,343.7656 L232.8438,351.8438 L235.3125,351.8438 L235.3125,354 L227.9219,354 L227.9219,351.8438 L230.3906,351.8438 L230.3906,343.7656 L227.9219,343.7656 Z "/><text fill="#000000" font-family="sans-serif" font-size="12" font-style="italic" lengthAdjust="spacingAndGlyphs" textLength="57" x="246" y="352.1543">DeQueue</text><rect fill="#FFFFFF" height="15.9688" style="stroke: #000000; stroke-width: 1.0; stroke-dasharray: 2.0,2.0;" width="9" x="311" y="329"/><text fill="#000000" font-family="sans-serif" font-size="12" font-style="italic" lengthAdjust="spacingAndGlyphs" textLength="7" x="312" y="341.1387">T</text><line style="stroke: #A80036; stroke-width: 1.5;" x1="218" x2="316" y1="364" y2="364"/><line style="stroke: #A80036; stroke-width: 1.5;" x1="218" x2="316" y1="372" y2="372"/><!--MD5=[30609b773d1acd1d8ef4d49cf63668f8]
reverse link Iterable to Collection--><path d="M137,76.02 C137,89.58 137,104.04 137,115.68 " fill="none" id="Iterable&lt;-Collection" style="stroke: #A80036; stroke-width: 1.0;"/><polygon fill="none" points="130,76,137,56,144,76,130,76" style="stroke: #A80036; stroke-width: 1.0;"/><!--MD5=[0159284274f96a472eb2618ad803aaca]
reverse link Collection to List--><path d="M101.74,178.75 C87.74,193.74 72.08,210.51 59.78,223.68 " fill="none" id="Collection&lt;-List" style="stroke: #A80036; stroke-width: 1.0;"/><polygon fill="none" points="96.75,173.84,115.52,164,106.98,183.39,96.75,173.84" style="stroke: #A80036; stroke-width: 1.0;"/><!--MD5=[1317568493796c4665b61a5c76c851cf]
reverse link Collection to Set--><path d="M137,184.02 C137,197.58 137,212.04 137,223.68 " fill="none" id="Collection&lt;-Set" style="stroke: #A80036; stroke-width: 1.0;"/><polygon fill="none" points="130,184,137,164,144,184,130,184" style="stroke: #A80036; stroke-width: 1.0;"/><!--MD5=[ed6173059207d719d56c0a76f1c566ad]
reverse link Collection to Queue--><path d="M178.89,177.1 C196.76,192.5 217.1,210.03 232.94,223.68 " fill="none" id="Collection&lt;-Queue" style="stroke: #A80036; stroke-width: 1.0;"/><polygon fill="none" points="174.27,182.36,163.69,164,183.41,171.75,174.27,182.36" style="stroke: #A80036; stroke-width: 1.0;"/><!--MD5=[92fae5c9076f5680ae937211bfcbd733]
reverse link Set to SortedSet--><path d="M133.75,292.02 C132.73,305.58 131.64,320.04 130.76,331.68 " fill="none" id="Set&lt;-SortedSet" style="stroke: #A80036; stroke-width: 1.0;"/><polygon fill="none" points="126.78,291.42,135.26,272,140.74,292.47,126.78,291.42" style="stroke: #A80036; stroke-width: 1.0;"/><!--MD5=[aacefb7b0fbbe26874d96b78ab90ff15]
reverse link SortedSet to NavigableSet--><path d="M129,400.02 C129,413.58 129,428.04 129,439.68 " fill="none" id="SortedSet&lt;-NavigableSet" style="stroke: #A80036; stroke-width: 1.0;"/><polygon fill="none" points="122,400,129,380,136,400,122,400" style="stroke: #A80036; stroke-width: 1.0;"/><!--MD5=[738dedd2cba4da08e0c3a77ce5ea4635]
reverse link Queue to DeQueue--><path d="M262.84,292.02 C263.74,305.58 264.69,320.04 265.46,331.68 " fill="none" id="Queue&lt;-DeQueue" style="stroke: #A80036; stroke-width: 1.0;"/><polygon fill="none" points="255.85,292.42,261.52,272,269.82,291.5,255.85,292.42" style="stroke: #A80036; stroke-width: 1.0;"/><!--MD5=[e58610cf6ce10416498989f4eb233688]
@startuml
interface Iterable<T>
interface Collection<T>
interface List<T>
interface Set<T>
interface SortedSet<T>
interface NavigableSet<T>
interface Queue<T>
interface DeQueue<T>

Iterable <|- - Collection
Collection <|- - List
Collection <|- - Set
Collection <|- - Queue
Set <|- - SortedSet
SortedSet <|- - NavigableSet
Queue <|- - DeQueue
@enduml

PlantUML version 1.2019.12(Sun Nov 03 11:24:54 CET 2019)
(APACHE source distribution)
Java Runtime: OpenJDK Runtime Environment
JVM: OpenJDK 64-Bit Server VM
Java Version: 11.0.6+10-post-Debian-1
Operating System: Linux
Default Encoding: UTF-8
Language: fr
Country: FR
--></g></svg>